<svg width="169" height="173" viewBox="0 0 169 173" fill="none" xmlns="http://www.w3.org/2000/svg">
<path fill-rule="evenodd" clip-rule="evenodd" d="M92.0646 24.6992C108.092 21.4934 126.371 26.4553 138.092 37.5345C149.363 48.1873 146.092 65.918 151.015 80.418C155.969 95.0082 169.247 107.418 166.982 122.621C164.587 138.694 152.837 152.553 138.922 161.579C125.316 170.405 108.423 171.733 92.0646 171.217C76.1771 170.715 61.4506 165.849 47.3718 158.688C30.9719 150.346 10.7592 143.514 4.4146 126.635C-1.96038 109.676 5.12321 89.7022 15.912 74.995C25.3363 62.1477 44.5932 62.4223 58.0284 53.5489C70.7943 45.1175 76.9398 27.7244 92.0646 24.6992Z" stroke="#510EC3" stroke-width="2"/>
<path opacity="0.928571" fill-rule="evenodd" clip-rule="evenodd" d="M91.9939 23.0132C107.869 19.8317 125.975 24.756 137.585 35.7512C148.749 46.3232 145.509 63.9194 150.386 78.3095C155.292 92.789 168.445 105.104 166.201 120.193C163.829 136.144 152.19 149.898 138.407 158.855C124.93 167.614 108.197 168.932 91.9939 168.419C76.2571 167.922 61.6702 163.092 47.725 155.986C31.4806 147.708 11.4595 140.927 5.17509 124.176C-1.13944 107.345 5.87698 87.5233 16.5635 72.9276C25.8985 60.1777 44.9727 60.4503 58.2805 51.6441C70.9254 43.2767 77.0126 26.0155 91.9939 23.0132Z" stroke="#510EC3" stroke-width="2"/>
<path opacity="0.857143" fill-rule="evenodd" clip-rule="evenodd" d="M91.9234 21.3272C107.647 18.17 125.579 23.0567 137.078 33.9678C148.135 44.4591 144.926 61.9209 149.756 76.201C154.616 90.5698 167.643 102.791 165.42 117.764C163.071 133.593 151.543 147.242 137.892 156.131C124.544 164.823 107.971 166.131 91.9234 165.622C76.3372 165.128 61.89 160.336 48.0782 153.284C31.9893 145.069 12.1599 138.34 5.93565 121.717C-0.318445 105.015 6.63081 85.3443 17.215 70.8602C26.4606 58.2077 45.3523 58.4782 58.5327 49.7393C71.0565 41.4358 77.0855 24.3065 91.9234 21.3272Z" stroke="#510EC3" stroke-width="2"/>
<path opacity="0.785714" fill-rule="evenodd" clip-rule="evenodd" d="M91.8528 19.6412C107.424 16.5084 125.183 21.3574 136.571 32.1845C147.521 42.595 144.343 59.9223 149.127 74.0924C153.939 88.3506 166.84 100.478 164.639 115.335C162.312 131.043 150.896 144.586 137.377 153.407C124.158 162.032 107.746 163.33 91.8528 162.825C76.4172 162.335 62.1096 157.58 48.4314 150.582C32.498 142.43 12.8603 135.753 6.69614 119.258C0.502494 102.684 7.38458 83.1654 17.8665 68.7927C27.0227 56.2378 45.7318 56.5061 58.7848 47.8346C71.1876 39.595 77.1583 22.5976 91.8528 19.6412Z" stroke="#510EC3" stroke-width="2"/>
<path opacity="0.714286" fill-rule="evenodd" clip-rule="evenodd" d="M91.7822 17.9552C107.201 14.8467 124.787 19.6581 136.064 30.4012C146.908 40.7308 143.76 57.9237 148.497 71.9839C153.263 86.1314 166.038 98.1645 163.858 112.907C161.554 128.492 150.25 141.931 136.863 150.683C123.772 159.241 107.52 160.529 91.7822 160.028C76.4973 159.542 62.3293 154.823 48.7846 147.879C33.0066 139.791 13.5606 133.166 7.45663 116.799C1.32343 100.354 8.13836 80.9864 18.5179 66.7253C27.5849 54.2678 46.1113 54.534 59.0369 45.9298C71.3187 37.7542 77.2311 20.8887 91.7822 17.9552Z" stroke="#510EC3" stroke-width="2"/>
<path opacity="0.642857" fill-rule="evenodd" clip-rule="evenodd" d="M91.7116 16.2692C106.979 13.185 124.391 17.9588 135.557 28.6179C146.294 38.8667 143.178 55.9251 147.867 69.8753C152.586 83.9123 165.235 95.8512 163.077 110.478C160.796 125.942 149.603 139.275 136.348 147.959C123.386 156.45 107.294 157.728 91.7116 157.231C76.5773 156.748 62.549 152.067 49.1377 145.177C33.5153 137.152 14.2609 130.579 8.21712 114.34C2.14437 98.0236 8.89213 78.8075 19.1694 64.6579C28.147 52.2978 46.4908 52.562 59.2891 44.025C71.4497 35.9133 77.3039 19.1798 91.7116 16.2692Z" stroke="#510EC3" stroke-width="2"/>
<path opacity="0.571429" fill-rule="evenodd" clip-rule="evenodd" d="M91.641 14.5832C106.756 11.5233 123.995 16.2595 135.05 26.8345C145.68 37.0026 142.595 53.9265 147.238 67.7668C151.91 81.6931 164.433 93.5379 162.296 108.05C160.038 123.391 148.956 136.62 135.833 145.235C123.001 153.659 107.069 154.927 91.641 154.434C76.6574 153.955 62.7687 149.31 49.491 142.475C34.0241 134.513 14.9613 127.991 8.97767 111.881C2.96537 95.6931 9.64596 76.6285 19.821 62.5905C28.7091 50.3278 46.8704 50.5899 59.5413 42.1202C71.5809 34.0725 77.3767 17.4708 91.641 14.5832Z" stroke="#510EC3" stroke-width="2"/>
<path opacity="0.5" fill-rule="evenodd" clip-rule="evenodd" d="M91.5704 12.8972C106.534 9.86165 123.599 14.5602 134.543 25.0512C145.066 35.1385 142.012 51.928 146.608 65.6582C151.233 79.4739 163.63 91.2246 161.515 105.621C159.279 120.841 148.309 133.964 135.318 142.511C122.615 150.868 106.843 152.126 91.5704 151.637C76.7375 151.162 62.9884 146.554 49.8441 139.773C34.5327 131.874 15.6616 125.404 9.73816 109.422C3.78631 93.3627 10.3997 74.4496 20.4724 60.5231C29.2712 48.3578 47.2499 48.6178 59.7934 40.2155C71.712 32.2317 77.4495 15.7619 91.5704 12.8972Z" stroke="#510EC3" stroke-width="2"/>
<path opacity="0.428571" fill-rule="evenodd" clip-rule="evenodd" d="M91.4998 11.2112C106.311 8.19998 123.204 12.8609 134.036 23.2679C144.452 33.2744 141.429 49.9294 145.979 63.5497C150.557 77.2547 162.828 88.9113 160.734 103.192C158.521 118.29 147.662 131.308 134.803 139.787C122.229 148.077 106.617 149.325 91.4998 148.84C76.8175 148.368 63.2081 143.797 50.1973 137.071C35.0414 129.236 16.362 122.817 10.4987 106.963C4.60725 91.0323 11.1535 72.2706 21.1239 58.4557C29.8334 46.3878 47.6295 46.6458 60.0455 38.3107C71.843 30.3908 77.5223 14.053 91.4998 11.2112Z" stroke="#510EC3" stroke-width="2"/>
<path opacity="0.357143" fill-rule="evenodd" clip-rule="evenodd" d="M91.4293 9.52513C106.089 6.53818 122.808 11.1614 133.529 21.4844C143.838 31.4101 140.846 47.9307 145.349 61.441C149.88 75.0354 162.026 86.5979 159.954 100.764C157.763 115.74 147.015 128.653 134.288 137.063C121.843 145.286 106.391 146.524 91.4293 146.042C76.8976 145.575 63.4278 141.041 50.5505 134.369C35.5501 126.597 17.0624 120.23 11.2592 104.504C5.42825 88.7018 11.9073 70.0916 21.7754 56.3881C30.3955 44.4177 48.009 44.6736 60.2977 36.4058C71.9742 28.5499 77.5952 12.3439 91.4293 9.52513Z" stroke="#510EC3" stroke-width="2"/>
<path opacity="0.285714" fill-rule="evenodd" clip-rule="evenodd" d="M91.3587 7.83914C105.866 4.8765 122.412 9.46213 133.022 19.7011C143.224 29.546 140.263 45.9321 144.72 59.3325C149.204 72.8162 161.223 84.2846 159.173 98.3351C157.005 113.189 146.369 125.997 133.773 134.338C121.457 142.495 106.166 143.723 91.3587 143.245C76.9776 142.782 63.6475 138.284 50.9037 131.667C36.0588 123.958 17.7627 117.643 12.0197 102.045C6.24919 86.3713 12.6611 67.9126 22.4269 54.3207C30.9576 42.4477 48.3886 42.7015 60.5498 34.501C72.1053 26.709 77.668 10.635 91.3587 7.83914Z" stroke="#510EC3" stroke-width="2"/>
<path opacity="0.214286" fill-rule="evenodd" clip-rule="evenodd" d="M91.2881 6.15315C105.644 3.21482 122.016 7.76282 132.515 17.9178C142.61 27.6819 139.68 43.9335 144.09 57.224C148.527 70.597 160.421 81.9713 158.392 95.9065C156.246 110.639 145.722 123.341 133.258 131.614C121.071 139.704 105.94 140.922 91.2881 140.448C77.0577 139.988 63.8672 135.528 51.2569 128.965C36.5675 121.319 18.463 115.056 12.7802 99.5856C7.07013 84.0409 13.4149 65.7337 23.0784 52.2533C31.5197 40.4778 48.7681 40.7294 60.8019 32.5962C72.2363 24.8682 77.7408 8.92604 91.2881 6.15315Z" stroke="#510EC3" stroke-width="2"/>
<path opacity="0.142857" fill-rule="evenodd" clip-rule="evenodd" d="M91.2175 4.46716C105.421 1.55314 121.62 6.06351 132.008 16.1344C141.996 25.8178 139.097 41.9349 143.46 55.1154C147.851 68.3778 159.618 79.658 157.611 93.4779C155.488 108.088 145.075 120.686 132.743 128.89C120.685 136.913 105.714 138.121 91.2175 137.651C77.1377 137.195 64.0868 132.772 51.6101 126.262C37.0762 118.68 19.1634 112.469 13.5407 97.1266C7.89106 81.7105 14.1687 63.5547 23.7298 50.1859C32.0819 38.5078 49.1476 38.7574 61.0541 30.6915C72.3674 23.0274 77.8136 7.21711 91.2175 4.46716Z" stroke="#510EC3" stroke-width="2"/>
<path opacity="0.0714286" fill-rule="evenodd" clip-rule="evenodd" d="M91.1469 2.78117C105.198 -0.108537 121.224 4.3642 131.501 14.3511C141.382 23.9537 138.515 39.9364 142.831 53.0069C147.174 66.1586 158.816 77.3447 156.83 91.0493C154.73 105.538 144.428 118.03 132.229 126.166C120.299 134.122 105.489 135.319 91.1469 134.854C77.2178 134.402 64.3066 130.015 51.9633 123.56C37.5849 116.041 19.8637 109.882 14.3012 94.6675C8.71206 79.3801 14.9225 61.3758 24.3814 48.1185C32.644 36.5378 49.5272 36.7853 61.3062 28.7867C72.4985 21.1865 77.8865 5.50817 91.1469 2.78117Z" stroke="#510EC3" stroke-width="2"/>
</svg>
